<?xml version="1.0" encoding="UTF-8"?>
<svg id="Layer_2" data-name="Layer 2" xmlns="http://www.w3.org/2000/svg" viewBox="0 0 1941 1501">
  <defs>
    <style>
      .cls-1 {
        fill: none;
        stroke: #abccd9;
        stroke-miterlimit: 10;
      }

      .cls-2 {
        opacity: .5;
      }
    </style>
  </defs>
  <g id="Layer_1-2" data-name="Layer 1">
    <g class="cls-2">
      <rect class="cls-1" x=".5" y=".5" width="1940" height="1500"/>
      <line class="cls-1" x1=".5" y1="1452.11" x2="1940.5" y2="1452.11"/>
      <line class="cls-1" x1=".5" y1="1403.73" x2="1940.5" y2="1403.73"/>
      <line class="cls-1" x1=".5" y1="1355.34" x2="1940.5" y2="1355.34"/>
      <line class="cls-1" x1=".5" y1="1306.95" x2="1940.5" y2="1306.95"/>
      <line class="cls-1" x1=".5" y1="1258.56" x2="1940.5" y2="1258.56"/>
      <line class="cls-1" x1=".5" y1="1210.18" x2="1940.5" y2="1210.18"/>
      <line class="cls-1" x1=".5" y1="1161.79" x2="1940.5" y2="1161.79"/>
      <line class="cls-1" x1=".5" y1="1113.4" x2="1940.5" y2="1113.4"/>
      <line class="cls-1" x1=".5" y1="1065.02" x2="1940.5" y2="1065.02"/>
      <line class="cls-1" x1=".5" y1="1016.63" x2="1940.5" y2="1016.63"/>
      <line class="cls-1" x1=".5" y1="968.24" x2="1940.5" y2="968.24"/>
      <line class="cls-1" x1=".5" y1="919.85" x2="1940.5" y2="919.85"/>
      <line class="cls-1" x1=".5" y1="871.47" x2="1940.5" y2="871.47"/>
      <line class="cls-1" x1=".5" y1="823.08" x2="1940.5" y2="823.08"/>
      <line class="cls-1" x1=".5" y1="774.69" x2="1940.5" y2="774.69"/>
      <line class="cls-1" x1=".5" y1="726.31" x2="1940.5" y2="726.31"/>
      <line class="cls-1" x1=".5" y1="677.92" x2="1940.5" y2="677.92"/>
      <line class="cls-1" x1=".5" y1="629.53" x2="1940.5" y2="629.53"/>
      <line class="cls-1" x1=".5" y1="581.15" x2="1940.5" y2="581.15"/>
      <line class="cls-1" x1=".5" y1="532.76" x2="1940.5" y2="532.76"/>
      <line class="cls-1" x1=".5" y1="484.37" x2="1940.5" y2="484.37"/>
      <line class="cls-1" x1=".5" y1="435.98" x2="1940.5" y2="435.98"/>
      <line class="cls-1" x1=".5" y1="387.6" x2="1940.5" y2="387.6"/>
      <line class="cls-1" x1=".5" y1="339.21" x2="1940.5" y2="339.21"/>
      <line class="cls-1" x1=".5" y1="290.82" x2="1940.5" y2="290.82"/>
      <line class="cls-1" x1=".5" y1="242.44" x2="1940.5" y2="242.44"/>
      <line class="cls-1" x1=".5" y1="194.05" x2="1940.5" y2="194.05"/>
      <line class="cls-1" x1=".5" y1="145.66" x2="1940.5" y2="145.66"/>
      <line class="cls-1" x1=".5" y1="97.27" x2="1940.5" y2="97.27"/>
      <line class="cls-1" x1=".5" y1="48.89" x2="1940.5" y2="48.89"/>
      <line class="cls-1" x1="1877.92" y1=".5" x2="1877.92" y2="1500.5"/>
      <line class="cls-1" x1="1815.34" y1=".5" x2="1815.34" y2="1500.5"/>
      <line class="cls-1" x1="1752.76" y1=".5" x2="1752.76" y2="1500.5"/>
      <line class="cls-1" x1="1690.18" y1=".5" x2="1690.18" y2="1500.5"/>
      <line class="cls-1" x1="1627.6" y1=".5" x2="1627.6" y2="1500.5"/>
      <line class="cls-1" x1="1565.02" y1=".5" x2="1565.02" y2="1500.5"/>
      <line class="cls-1" x1="1502.44" y1=".5" x2="1502.44" y2="1500.5"/>
      <line class="cls-1" x1="1439.85" y1=".5" x2="1439.85" y2="1500.5"/>
      <line class="cls-1" x1="1377.27" y1=".5" x2="1377.27" y2="1500.5"/>
      <line class="cls-1" x1="1314.69" y1=".5" x2="1314.69" y2="1500.5"/>
      <line class="cls-1" x1="1252.11" y1=".5" x2="1252.11" y2="1500.5"/>
      <line class="cls-1" x1="1189.53" y1=".5" x2="1189.53" y2="1500.5"/>
      <line class="cls-1" x1="1126.95" y1=".5" x2="1126.95" y2="1500.5"/>
      <line class="cls-1" x1="1064.37" y1=".5" x2="1064.37" y2="1500.5"/>
      <line class="cls-1" x1="1001.79" y1=".5" x2="1001.79" y2="1500.5"/>
      <line class="cls-1" x1="939.21" y1=".5" x2="939.21" y2="1500.5"/>
      <line class="cls-1" x1="876.63" y1=".5" x2="876.63" y2="1500.5"/>
      <line class="cls-1" x1="814.05" y1=".5" x2="814.05" y2="1500.5"/>
      <line class="cls-1" x1="751.47" y1=".5" x2="751.47" y2="1500.5"/>
      <line class="cls-1" x1="688.89" y1=".5" x2="688.89" y2="1500.5"/>
      <line class="cls-1" x1="626.31" y1=".5" x2="626.31" y2="1500.5"/>
      <line class="cls-1" x1="563.73" y1=".5" x2="563.73" y2="1500.5"/>
      <line class="cls-1" x1="501.15" y1=".5" x2="501.15" y2="1500.5"/>
      <line class="cls-1" x1="438.56" y1=".5" x2="438.56" y2="1500.5"/>
      <line class="cls-1" x1="375.98" y1=".5" x2="375.98" y2="1500.5"/>
      <line class="cls-1" x1="313.4" y1=".5" x2="313.4" y2="1500.5"/>
      <line class="cls-1" x1="250.82" y1=".5" x2="250.82" y2="1500.5"/>
      <line class="cls-1" x1="188.24" y1=".5" x2="188.24" y2="1500.5"/>
      <line class="cls-1" x1="125.66" y1=".5" x2="125.66" y2="1500.5"/>
      <line class="cls-1" x1="63.08" y1=".5" x2="63.08" y2="1500.5"/>
    </g>
  </g>
</svg>