<?xml version="1.0" encoding="UTF-8"?>
<svg id="Layer_2" data-name="Layer 2" xmlns="http://www.w3.org/2000/svg" viewBox="0 0 53.36 53.36">
  <defs>
    <style>
      .cls-1 {
        fill: #000;
      }

      .cls-1, .cls-2 {
        stroke-width: 0px;
      }

      .cls-2 {
        fill: #fff;
      }
    </style>
  </defs>
  <g id="Layer_1-2" data-name="Layer 1">
    <g>
      <circle class="cls-2" cx="26.68" cy="26.68" r="26.68"/>
      <path class="cls-1" d="M32.8,37.31c-1.59,1.11-3.78,1.78-6.27,1.78-7.38,0-12.01-4.45-12.01-11.72,0-7.94,5.64-12.5,12.57-12.5,1.89,0,4.08.41,5.04,1l1.52-1.59h.7c.44,0,.59.19.59.63v8.27h-1.97l-1-2.6c-.85-1.97-2.45-2.89-4.89-2.89-4.67,0-7.16,4.12-7.16,9.68,0,5.19,2.67,8.75,7.23,8.75,1.82,0,3.15-.44,4-1.22v-4.38c-1.08-.26-2.22-.67-2.82-.96l.22-1.85h10.12l.15,1.85c-.56.3-1.56.74-2.63,1v8.23h-2.04l-1.37-1.48Z"/>
    </g>
  </g>
</svg>