<svg width="68" height="68" viewBox="0 0 68 68" fill="none" xmlns="http://www.w3.org/2000/svg">
<path d="M55.9759 8.22058C54.9398 6.99615 53.2493 6.37033 50.9317 6.37033C44.5788 6.37033 42.9156 11.268 42.5066 13.7169C44.2244 14.2067 45.8603 14.8597 47.3872 15.7032L48.7777 10.0708C49.0504 8.95524 50.2228 8.24779 51.3407 8.54709C52.4859 8.81919 53.1948 9.96199 52.8948 11.1048L51.0953 18.2881C53.3584 20.1656 55.2397 22.4512 56.6302 25.0361L57.3937 22.6961C57.7754 21.5805 58.9751 20.9819 60.093 21.3628C61.1836 21.7165 61.8107 22.941 61.429 24.0293L59.3023 30.3964C59.2205 30.6685 59.0569 30.9134 58.866 31.1038C59.1932 32.7092 59.3841 34.369 59.3841 36.0832C59.3841 38.1511 59.0841 40.1646 58.5661 42.0693C61.02 39.8653 63.7193 36.0288 63.7193 29.7978C63.7193 18.7235 58.9751 16.9548 58.7569 16.9004C57.7754 16.5739 57.121 15.54 57.3119 14.5332C57.3119 14.4788 57.939 10.5334 55.9486 8.16616L55.9759 8.22058ZM59.3841 46.8854C57.5845 48.1098 56.1394 48.654 55.9759 48.7356C55.8668 48.79 55.7577 48.7356 55.6759 48.79C54.2309 51.0212 52.4041 52.9803 50.3046 54.5857C50.3046 54.5857 50.2501 54.5857 50.2501 54.6401C49.7593 55.021 49.2412 55.3748 48.7505 55.7285C48.7505 55.8373 48.7505 55.9462 48.6959 56.055C48.6414 56.191 48.1233 57.6059 46.9237 59.3746C50.5227 59.1569 53.631 57.878 55.8668 55.6196C58.048 53.3885 59.275 50.3954 59.4386 46.9126L59.3841 46.8854ZM27.5651 47.6745C27.9468 50.8036 30.7006 53.9327 33.9452 55.0755C34.6541 55.1571 35.3358 55.2115 36.0447 55.2115C39.9437 55.2115 43.57 54.0143 46.5692 52.028C46.3238 50.4498 45.5876 48.654 44.6061 46.8037L38.853 48.7356C38.6076 48.79 38.4168 48.8445 38.1714 48.8445C37.2716 48.8445 36.4537 48.2731 36.1537 47.3751C35.7993 46.2596 36.3991 45.0623 37.517 44.7086L42.2612 43.1305C39.8073 39.7293 36.8626 36.7906 35.0904 35.8927C34.027 35.3757 33.5908 34.0969 34.1361 33.0629C34.6541 32.0289 35.9356 31.5936 36.9717 32.1106C38.1441 32.682 39.5892 33.852 41.1433 35.3485L42.5066 31.2127C42.8883 30.0971 44.088 29.4985 45.2059 29.8794C46.3238 30.2331 46.9237 31.4575 46.5419 32.5459L44.4152 38.913V38.9674C46.8419 41.9877 49.0504 45.6065 50.141 48.9533C53.2493 45.5521 55.1579 41.0625 55.1579 36.1376C55.1579 33.7159 54.6944 31.4303 53.8764 29.308C53.6037 29.0903 53.3584 28.8454 53.222 28.4917C51.6679 25.0089 46.5965 22.9682 43.0792 23.4579C40.5435 23.8117 40.3254 25.3082 40.2436 25.798C40.1618 26.5054 39.6983 27.1584 39.0166 27.4577C38.335 27.757 37.5443 27.7026 36.9444 27.2673C34.1906 25.3626 31.3277 25.0089 28.9556 26.2605C26.8834 27.3489 25.4383 29.5529 25.4383 31.6208C25.4383 35.4029 27.7832 37.9062 29.9917 38.3144C30.8915 38.4776 31.5731 39.1851 31.6822 40.0558C31.8185 40.9537 31.4095 41.8244 30.6188 42.2597C28.274 43.5658 27.2379 45.3889 27.4833 47.6745H27.5651ZM5.58895 24.6007C3.24411 29.7433 4.00755 35.8655 7.44302 40.4639C9.21528 39.3483 11.1239 38.6953 12.8143 38.396C12.7326 37.6613 12.678 36.8995 12.678 36.1376C12.678 23.2403 23.148 12.819 36.0447 12.819C36.8081 12.819 37.5715 12.8734 38.3077 12.9278C38.5531 11.6218 38.9894 10.2069 39.671 8.8464C34.027 3.81263 26.5562 3.43169 21.7029 5.33636C17.9676 6.80568 15.5954 9.49943 14.9411 12.9006C15.5682 12.819 16.1408 12.7374 16.7951 12.7374C17.9676 12.6829 18.9491 13.6081 18.9764 14.7781C19.0309 15.9753 18.0766 16.9276 16.9042 16.9548C11.8601 17.1181 7.71567 19.8935 5.58895 24.6007ZM24.9748 56.6536C22.4119 55.2659 20.1215 53.4429 18.2675 51.2389L11.0966 53.0347C10.9058 53.0892 10.7422 53.0892 10.5786 53.0892C9.62427 53.0892 8.77903 52.4361 8.50638 51.4838C8.23372 50.341 8.91536 49.1982 10.0605 48.9261L15.6772 47.5384C14.8047 45.9602 14.0958 44.3277 13.6051 42.5591C11.1511 42.9944 6.21606 44.627 6.21606 50.994C6.21606 53.334 6.84317 54.9666 8.09739 56.0278C10.4422 57.9869 14.423 57.3611 14.4503 57.3611C15.5409 57.1706 16.5497 57.8236 16.8497 58.8576C16.9042 58.9936 18.7037 63.7825 29.7736 63.7825C36.0447 63.7825 39.8619 61.116 42.0976 58.6399C40.1618 59.1569 38.1441 59.4562 36.0719 59.4562C35.5266 59.4562 34.9813 59.4018 34.4633 59.3746C34.2997 59.429 34.1361 59.4562 33.9452 59.4562C33.7544 59.4562 33.5908 59.4562 33.3999 59.3746C33.2636 59.3201 33.1 59.2657 32.9637 59.2385C32.3365 59.1569 31.7367 59.0481 31.1369 58.912C30.9187 59.1025 30.6733 59.2385 30.4007 59.3474L24.0205 61.4697C23.7751 61.5241 23.5843 61.5785 23.3389 61.5785C22.4391 61.5785 21.6212 61.0071 21.3212 60.1092C20.9668 59.0208 21.5666 57.7964 22.6845 57.4427L25.0294 56.6536H24.9748ZM25.6565 40.8448C23.148 38.9946 21.1849 35.7839 21.2122 31.5936C21.2122 27.9475 23.557 24.2742 27.0197 22.4784C30.128 20.873 33.6726 20.873 37.0808 22.424C38.1714 20.737 40.0527 19.5942 42.5066 19.2405C43.2428 19.1316 44.0335 19.1044 44.8515 19.1588C42.2067 17.7983 39.2348 17.0093 36.0447 17.0093C25.5201 17.0093 16.9315 25.5531 16.9315 36.0832C16.9315 42.0693 19.7398 47.4296 24.1023 50.9396C23.7479 50.0145 23.4752 49.0621 23.3662 48.1098C23.039 45.3344 23.8569 42.7767 25.6837 40.7904L25.6565 40.8448ZM1.98989 50.9668C1.98989 47.7017 2.91692 45.2256 4.33473 43.3481C-0.273159 37.4981 -1.30925 29.5257 1.71723 22.8321C3.5713 18.7507 6.70684 15.7576 10.524 14.1251C10.824 8.41104 14.314 3.67658 20.0943 1.39098C26.2563 -1.05788 35.1722 -0.595323 42.1522 5.39078C44.1153 3.48611 46.9509 2.12563 50.9044 2.12563C54.5308 2.12563 57.3119 3.24123 59.2205 5.49962C61.4835 8.16616 61.7289 11.6762 61.6744 13.6897C64.0192 15.2134 68 19.3765 68 29.8522C68 36.0015 65.9278 40.2734 63.4466 43.2121C64.2101 49.307 62.6287 54.7489 58.866 58.5583C55.5669 61.8778 51.0408 63.6193 45.8603 63.6193C44.9878 63.6193 44.088 63.5648 43.161 63.456C40.2436 65.9049 35.9356 68 29.7463 68C19.2763 68 15.1047 64.0274 13.5778 61.6602C11.5329 61.7146 8.0156 61.4969 5.34356 59.2385C3.10778 57.3611 1.96262 54.5585 1.96262 50.9396L1.98989 50.9668Z" fill="#A70E0E"/>
</svg>
